<mxfile host="65bd71144e">
    <diagram id="HtzWDpN0ZDDzlumxWtzn" name="Design">
        <mxGraphModel dx="826" dy="541" grid="1" gridSize="10" guides="1" tooltips="1" connect="1" arrows="1" fold="1" page="1" pageScale="1" pageWidth="827" pageHeight="1169" math="0" shadow="0">
            <root>
                <mxCell id="0"/>
                <mxCell id="1" parent="0"/>
                <mxCell id="Ms_0TIsMvQakx48X9kYZ-6" value="SM2M&lt;br&gt;computing&lt;br&gt;units" style="rounded=1;whiteSpace=wrap;html=1;labelBackgroundColor=none;" parent="1" vertex="1">
                    <mxGeometry x="80" y="80" width="80" height="160" as="geometry"/>
                </mxCell>
                <mxCell id="Ms_0TIsMvQakx48X9kYZ-7" value="Signal decoder" style="rounded=1;whiteSpace=wrap;html=1;labelBackgroundColor=none;" parent="1" vertex="1">
                    <mxGeometry x="320" y="260" width="80" height="80" as="geometry"/>
                </mxCell>
                <mxCell id="Ms_0TIsMvQakx48X9kYZ-8" value="" style="shape=flexArrow;endArrow=classic;html=1;labelBackgroundColor=none;startArrow=block;" parent="1" edge="1">
                    <mxGeometry width="50" height="50" relative="1" as="geometry">
                        <mxPoint x="160" y="120" as="sourcePoint"/>
                        <mxPoint x="480" y="120" as="targetPoint"/>
                    </mxGeometry>
                </mxCell>
                <mxCell id="Ms_0TIsMvQakx48X9kYZ-9" value="Address BUS" style="edgeLabel;html=1;align=center;verticalAlign=middle;resizable=0;points=[];fontSize=12;labelBackgroundColor=none;" parent="Ms_0TIsMvQakx48X9kYZ-8" vertex="1" connectable="0">
                    <mxGeometry x="-0.35" y="3" relative="1" as="geometry">
                        <mxPoint x="150" y="-17" as="offset"/>
                    </mxGeometry>
                </mxCell>
                <mxCell id="Ms_0TIsMvQakx48X9kYZ-10" value="" style="shape=flexArrow;endArrow=classic;html=1;labelBackgroundColor=none;startArrow=block;" parent="1" edge="1">
                    <mxGeometry width="50" height="50" relative="1" as="geometry">
                        <mxPoint x="160" y="200" as="sourcePoint"/>
                        <mxPoint x="480" y="200" as="targetPoint"/>
                    </mxGeometry>
                </mxCell>
                <mxCell id="Ms_0TIsMvQakx48X9kYZ-11" value="Control BUS" style="edgeLabel;html=1;align=center;verticalAlign=middle;resizable=0;points=[];fontSize=12;labelBackgroundColor=none;" parent="Ms_0TIsMvQakx48X9kYZ-10" vertex="1" connectable="0">
                    <mxGeometry x="-0.35" y="3" relative="1" as="geometry">
                        <mxPoint x="149" y="-17" as="offset"/>
                    </mxGeometry>
                </mxCell>
                <mxCell id="Ms_0TIsMvQakx48X9kYZ-14" value="XPlane plugin" style="rounded=1;whiteSpace=wrap;html=1;fontSize=12;labelBackgroundColor=none;fillColor=#ffe6cc;strokeColor=#d79b00;fontColor=#000000;" parent="1" vertex="1">
                    <mxGeometry x="200" y="380" width="200" height="40" as="geometry"/>
                </mxCell>
                <mxCell id="Ms_0TIsMvQakx48X9kYZ-15" value="" style="endArrow=classic;html=1;fontSize=12;exitX=0.5;exitY=1;exitDx=0;exitDy=0;labelBackgroundColor=none;entryX=0.8;entryY=-0.006;entryDx=0;entryDy=0;entryPerimeter=0;" parent="1" source="Ms_0TIsMvQakx48X9kYZ-7" target="Ms_0TIsMvQakx48X9kYZ-14" edge="1">
                    <mxGeometry width="50" height="50" relative="1" as="geometry">
                        <mxPoint x="490" y="160" as="sourcePoint"/>
                        <mxPoint x="361" y="379" as="targetPoint"/>
                    </mxGeometry>
                </mxCell>
                <mxCell id="Ms_0TIsMvQakx48X9kYZ-16" value="Send decoded signals&lt;br&gt;as parameters buffer to USB" style="edgeLabel;html=1;align=left;verticalAlign=middle;resizable=0;points=[];fontSize=12;labelBackgroundColor=none;" parent="Ms_0TIsMvQakx48X9kYZ-15" vertex="1" connectable="0">
                    <mxGeometry x="-0.2429" y="1" relative="1" as="geometry">
                        <mxPoint x="9" y="5" as="offset"/>
                    </mxGeometry>
                </mxCell>
                <mxCell id="Ms_0TIsMvQakx48X9kYZ-17" value="XPlane" style="rounded=1;whiteSpace=wrap;html=1;fontSize=12;labelBackgroundColor=none;" parent="1" vertex="1">
                    <mxGeometry x="240" y="460" width="120" height="40" as="geometry"/>
                </mxCell>
                <mxCell id="Ms_0TIsMvQakx48X9kYZ-18" value="" style="endArrow=classic;html=1;fontSize=12;exitX=0.5;exitY=1;exitDx=0;exitDy=0;entryX=0.5;entryY=0;entryDx=0;entryDy=0;labelBackgroundColor=none;" parent="1" source="Ms_0TIsMvQakx48X9kYZ-14" target="Ms_0TIsMvQakx48X9kYZ-17" edge="1">
                    <mxGeometry width="50" height="50" relative="1" as="geometry">
                        <mxPoint x="560" y="320" as="sourcePoint"/>
                        <mxPoint x="610" y="270" as="targetPoint"/>
                    </mxGeometry>
                </mxCell>
                <mxCell id="Ms_0TIsMvQakx48X9kYZ-19" value="Set aircraft parameters&lt;br&gt;on every rendering frame" style="edgeLabel;html=1;align=left;verticalAlign=middle;resizable=0;points=[];fontSize=12;labelBackgroundColor=none;" parent="Ms_0TIsMvQakx48X9kYZ-18" vertex="1" connectable="0">
                    <mxGeometry x="-0.1333" relative="1" as="geometry">
                        <mxPoint x="10" y="3" as="offset"/>
                    </mxGeometry>
                </mxCell>
                <mxCell id="Ms_0TIsMvQakx48X9kYZ-20" value="Signal encoder" style="rounded=1;whiteSpace=wrap;html=1;labelBackgroundColor=none;" parent="1" vertex="1">
                    <mxGeometry x="200" y="260" width="80" height="80" as="geometry"/>
                </mxCell>
                <mxCell id="Ms_0TIsMvQakx48X9kYZ-25" value="" style="endArrow=classic;html=1;fontSize=12;entryX=0.5;entryY=1;entryDx=0;entryDy=0;labelBackgroundColor=none;startArrow=none;startFill=0;" parent="1" target="Ms_0TIsMvQakx48X9kYZ-20" edge="1">
                    <mxGeometry width="50" height="50" relative="1" as="geometry">
                        <mxPoint x="240" y="380" as="sourcePoint"/>
                        <mxPoint x="540" y="390" as="targetPoint"/>
                    </mxGeometry>
                </mxCell>
                <mxCell id="Ms_0TIsMvQakx48X9kYZ-30" value="Send parameters buffer&lt;br&gt;to encode from USB" style="edgeLabel;html=1;align=right;verticalAlign=middle;resizable=0;points=[];fontSize=12;labelBackgroundColor=none;" parent="Ms_0TIsMvQakx48X9kYZ-25" vertex="1" connectable="0">
                    <mxGeometry x="0.4522" y="2" relative="1" as="geometry">
                        <mxPoint x="-8" y="9" as="offset"/>
                    </mxGeometry>
                </mxCell>
                <mxCell id="Ms_0TIsMvQakx48X9kYZ-31" value="" style="shape=flexArrow;endArrow=classic;html=1;labelBackgroundColor=none;startArrow=block;" parent="1" edge="1">
                    <mxGeometry width="50" height="50" relative="1" as="geometry">
                        <mxPoint x="160" y="159.5" as="sourcePoint"/>
                        <mxPoint x="480" y="160" as="targetPoint"/>
                    </mxGeometry>
                </mxCell>
                <mxCell id="Ms_0TIsMvQakx48X9kYZ-32" value="Data BUS" style="edgeLabel;html=1;align=center;verticalAlign=middle;resizable=0;points=[];fontSize=12;labelBackgroundColor=none;" parent="Ms_0TIsMvQakx48X9kYZ-31" vertex="1" connectable="0">
                    <mxGeometry x="-0.35" y="3" relative="1" as="geometry">
                        <mxPoint x="156" y="-17" as="offset"/>
                    </mxGeometry>
                </mxCell>
                <mxCell id="Ms_0TIsMvQakx48X9kYZ-36" value="" style="endArrow=oval;html=1;labelBackgroundColor=none;fontSize=12;startArrow=oval;startFill=1;entryX=0.25;entryY=0;entryDx=0;entryDy=0;endFill=1;" parent="1" target="Ms_0TIsMvQakx48X9kYZ-20" edge="1">
                    <mxGeometry width="50" height="50" relative="1" as="geometry">
                        <mxPoint x="220" y="120" as="sourcePoint"/>
                        <mxPoint x="590" y="120" as="targetPoint"/>
                    </mxGeometry>
                </mxCell>
                <mxCell id="Ms_0TIsMvQakx48X9kYZ-37" value="" style="endArrow=oval;html=1;labelBackgroundColor=none;fontSize=12;startArrow=oval;startFill=1;entryX=0.5;entryY=0;entryDx=0;entryDy=0;endFill=1;" parent="1" target="Ms_0TIsMvQakx48X9kYZ-20" edge="1">
                    <mxGeometry width="50" height="50" relative="1" as="geometry">
                        <mxPoint x="240" y="160" as="sourcePoint"/>
                        <mxPoint x="560" y="180" as="targetPoint"/>
                    </mxGeometry>
                </mxCell>
                <mxCell id="Ms_0TIsMvQakx48X9kYZ-38" value="" style="endArrow=oval;html=1;labelBackgroundColor=none;fontSize=12;startArrow=oval;startFill=1;entryX=0.75;entryY=0;entryDx=0;entryDy=0;endFill=1;" parent="1" target="Ms_0TIsMvQakx48X9kYZ-20" edge="1">
                    <mxGeometry width="50" height="50" relative="1" as="geometry">
                        <mxPoint x="260" y="200" as="sourcePoint"/>
                        <mxPoint x="540" y="230" as="targetPoint"/>
                    </mxGeometry>
                </mxCell>
                <mxCell id="Ms_0TIsMvQakx48X9kYZ-39" value="" style="endArrow=oval;html=1;labelBackgroundColor=none;fontSize=12;startArrow=oval;startFill=1;entryX=0.25;entryY=0;entryDx=0;entryDy=0;endFill=1;" parent="1" target="Ms_0TIsMvQakx48X9kYZ-7" edge="1">
                    <mxGeometry width="50" height="50" relative="1" as="geometry">
                        <mxPoint x="340" y="120" as="sourcePoint"/>
                        <mxPoint x="490" y="240" as="targetPoint"/>
                    </mxGeometry>
                </mxCell>
                <mxCell id="Ms_0TIsMvQakx48X9kYZ-40" value="" style="endArrow=oval;html=1;labelBackgroundColor=none;fontSize=12;startArrow=oval;startFill=1;entryX=0.25;entryY=0;entryDx=0;entryDy=0;endFill=1;" parent="1" edge="1">
                    <mxGeometry width="50" height="50" relative="1" as="geometry">
                        <mxPoint x="359" y="160" as="sourcePoint"/>
                        <mxPoint x="359.17" y="260" as="targetPoint"/>
                    </mxGeometry>
                </mxCell>
                <mxCell id="Ms_0TIsMvQakx48X9kYZ-41" value="" style="endArrow=oval;html=1;labelBackgroundColor=none;fontSize=12;startArrow=oval;startFill=1;entryX=0.25;entryY=0;entryDx=0;entryDy=0;endFill=1;" parent="1" edge="1">
                    <mxGeometry width="50" height="50" relative="1" as="geometry">
                        <mxPoint x="380" y="200" as="sourcePoint"/>
                        <mxPoint x="380.1700000000001" y="260" as="targetPoint"/>
                    </mxGeometry>
                </mxCell>
            </root>
        </mxGraphModel>
    </diagram>
</mxfile>